<?xml version="1.0" standalone="no"?><!DOCTYPE svg PUBLIC "-//W3C//DTD SVG 1.1//EN" "http://www.w3.org/Graphics/SVG/1.1/DTD/svg11.dtd"><svg t="1678103231534" class="icon" viewBox="0 0 1024 1024" version="1.1" xmlns="http://www.w3.org/2000/svg" p-id="1111" xmlns:xlink="http://www.w3.org/1999/xlink" width="200" height="200"><path d="M358.4 102.4H204.8a102.4 102.4 0 0 0-102.4 102.4v153.6a102.4 102.4 0 0 0 102.4 102.4h153.6a102.4 102.4 0 0 0 102.4-102.4V204.8a102.4 102.4 0 0 0-102.4-102.4z m0 256H204.8V204.8h153.6z m0 204.8H204.8a102.4 102.4 0 0 0-102.4 102.4v153.6a102.4 102.4 0 0 0 102.4 102.4h153.6a102.4 102.4 0 0 0 102.4-102.4v-153.6a102.4 102.4 0 0 0-102.4-102.4z m0 256H204.8v-153.6h153.6z m460.8-256h-153.6a102.4 102.4 0 0 0-102.4 102.4v153.6a102.4 102.4 0 0 0 102.4 102.4h153.6a102.4 102.4 0 0 0 102.4-102.4v-153.6a102.4 102.4 0 0 0-102.4-102.4z m0 256h-153.6v-153.6h153.6z m0-716.8h-153.6a102.4 102.4 0 0 0-102.4 102.4v153.6a102.4 102.4 0 0 0 102.4 102.4h153.6a102.4 102.4 0 0 0 102.4-102.4V204.8a102.4 102.4 0 0 0-102.4-102.4z m0 256h-153.6V204.8h153.6z" fill="" p-id="1112"></path></svg>